<?xml version="1.0" standalone="no"?>
<!DOCTYPE svg PUBLIC "-//W3C//DTD SVG 20010904//EN"
 "http://www.w3.org/TR/2001/REC-SVG-20010904/DTD/svg10.dtd">
<svg version="1.0" xmlns="http://www.w3.org/2000/svg"
 width="1512.000000pt" height="1359.000000pt" viewBox="0 0 1512.000000 1359.000000"
 preserveAspectRatio="xMidYMid meet">
<metadata>
Created by potrace 1.16, written by Peter Selinger 2001-2019
</metadata>
<g transform="translate(0.000000,1359.000000) scale(0.100000,-0.100000)"
fill="#ffffff" stroke="none">
<path d="M7250 13529 c-682 -24 -1395 -166 -2040 -406 -651 -244 -1261 -586
-1787 -1005 -224 -178 -332 -276 -584 -527 -236 -237 -366 -381 -533 -596 -43
-55 -156 -183 -251 -285 -491 -526 -768 -886 -1070 -1392 -467 -780 -769
-1668 -869 -2553 -42 -368 -53 -891 -27 -1210 38 -454 126 -912 261 -1358 256
-844 710 -1633 1333 -2316 47 -52 84 -98 81 -103 -3 -5 -76 -68 -162 -141
-238 -201 -278 -241 -313 -313 -75 -153 -32 -346 97 -435 102 -70 655 -264
1007 -354 506 -128 970 -204 1639 -266 237 -22 319 2 437 126 82 86 129 175
144 274 6 39 15 71 19 71 3 0 51 -21 105 -46 1047 -491 2153 -697 3278 -613
833 62 1639 282 2383 649 458 226 738 399 1187 733 138 103 315 235 395 294
724 537 1291 1087 1746 1693 726 967 1181 2096 1324 3280 34 289 44 457 44
775 -1 407 -24 694 -85 1055 -182 1064 -595 2007 -1224 2790 -107 133 -366
422 -414 463 -19 15 -32 29 -30 31 2 2 56 43 119 91 213 162 251 211 258 334
5 91 -7 143 -51 208 -44 66 -100 100 -263 162 -511 195 -1279 334 -1889 343
-127 2 -144 0 -186 -20 -75 -37 -125 -87 -161 -160 l-33 -67 2 -157 2 -157
-62 44 c-352 245 -1003 562 -1512 735 -711 243 -1508 356 -2315 329z m889
-253 c941 -104 1785 -385 2576 -858 214 -129 438 -280 440 -298 1 -8 7 -231
14 -495 6 -264 13 -536 15 -605 2 -109 6 -133 28 -181 34 -76 79 -123 146
-156 50 -24 69 -28 147 -28 112 0 113 0 375 191 l200 146 43 -35 c74 -61 278
-267 388 -393 740 -845 1219 -1901 1384 -3049 48 -335 59 -498 60 -870 0 -437
-22 -683 -100 -1103 -104 -562 -275 -1072 -540 -1607 -135 -274 -233 -443
-407 -703 -288 -432 -518 -712 -874 -1064 -852 -841 -1842 -1399 -2993 -1688
-659 -165 -1341 -220 -2036 -164 -769 62 -1582 288 -2265 629 l-126 63 -23
419 c-40 737 -51 988 -80 1843 -11 306 -19 337 -110 429 -83 84 -134 106 -251
106 -128 0 -159 -16 -390 -207 -102 -83 -272 -223 -378 -311 l-193 -159 -97
90 c-275 255 -561 572 -754 837 -398 546 -654 1046 -853 1665 -237 739 -306
1557 -200 2360 83 622 312 1318 621 1883 481 880 1133 1611 1959 2199 471 334
1082 639 1655 826 452 147 1000 259 1425 292 77 6 156 12 175 14 19 2 224 3
455 1 297 -2 462 -8 564 -19z m3596 -536 c572 -35 1060 -130 1540 -300 123
-43 176 -67 193 -85 23 -28 29 -74 12 -105 -5 -10 -113 -95 -239 -189 -126
-94 -234 -178 -241 -186 -11 -13 21 -49 202 -228 455 -450 756 -870 1048
-1462 368 -746 568 -1544 610 -2435 29 -596 -53 -1309 -220 -1920 -281 -1028
-788 -1948 -1515 -2748 -60 -66 -111 -119 -113 -117 -2 1 18 34 45 72 326 461
633 1083 822 1667 239 737 341 1513 301 2271 -73 1357 -580 2659 -1429 3665
-164 194 -617 640 -651 640 -4 0 -127 -85 -273 -189 -146 -104 -274 -194 -285
-200 -34 -18 -60 -13 -94 18 l-33 29 -7 359 c-7 358 -19 718 -39 1144 -10 204
-9 230 6 259 22 43 66 61 135 55 30 -3 132 -10 225 -15z m-10236 -3086 c-93
-206 -212 -543 -288 -812 -83 -294 -142 -602 -178 -932 -26 -235 -25 -926 0
-1145 81 -686 255 -1287 554 -1915 187 -392 496 -863 813 -1240 178 -213 632
-658 735 -721 37 -24 83 -24 115 -2 14 9 75 58 135 108 110 91 466 381 623
508 87 71 115 83 160 72 81 -20 103 -62 108 -214 28 -829 40 -1098 100 -2176
22 -413 22 -478 -6 -543 -27 -62 -95 -127 -152 -144 -30 -9 -71 -9 -176 1
-962 86 -1760 260 -2400 523 -141 58 -162 78 -162 153 0 44 4 52 48 94 61 59
160 146 347 305 166 142 199 178 190 215 -3 13 -75 98 -160 190 -181 195 -301
337 -435 516 -893 1188 -1298 2702 -1129 4220 74 663 267 1350 543 1930 70
146 226 441 294 555 55 93 346 530 350 526 1 -2 -12 -34 -29 -72z M3255 10490
c-191 -40 -331 -170 -392 -365 -17 -58 -18 -168 -18 -2775 l0 -2715 22 -70
c54 -173 192 -306 360 -350 50 -13 566 -15 4258 -15 2862 0 4214 4 4245 11
126 29 265 137 327 255 68 128 63 -91 61 2911 l-3 2718 -23 59 c-57 152 -167
262 -319 319 l-58 22 -4210 1 c-2316 1 -4228 -2 -4250 -6z m8479 -254 c59 -29
94 -64 129 -130 22 -41 22 -41 22 -651 l0 -610 -4405 0 -4405 0 -3 575 c-1
376 1 593 8 626 21 102 97 184 194 208 32 8 1208 11 4224 10 l4181 -1 55 -27z
m154 -3613 l-3 -1988 -27 -51 c-31 -58 -84 -108 -142 -135 -40 -18 -179 -19
-4231 -19 l-4190 0 -50 24 c-65 30 -112 77 -144 146 l-26 55 -3 1978 -2 1977
4410 0 4410 0 -2 -1987z M3776 9949 c-159 -37 -289 -190 -303 -356 -11 -129
35 -242 133 -332 77 -71 144 -95 264 -96 86 0 101 3 162 32 126 59 206 164
228 298 45 275 -214 517 -484 454z m160 -238 c111 -51 134 -194 43 -275 -62
-56 -150 -61 -215 -11 -50 38 -67 78 -62 145 5 69 35 115 92 141 52 23 90 23
142 0z M4832 9949 c-64 -12 -156 -66 -208 -121 -65 -70 -95 -141 -101 -242
-12 -180 70 -317 235 -394 50 -24 69 -27 158 -27 96 0 103 2 176 38 87 43 147
102 185 184 138 299 -120 626 -445 562z m154 -238 c102 -46 131 -184 56 -265
-99 -106 -273 -54 -289 87 -7 56 10 107 45 143 55 55 118 67 188 35z M5858
9941 c-120 -39 -202 -112 -255 -227 -25 -52 -28 -71 -28 -159 0 -93 2 -105 33
-167 41 -84 128 -167 209 -199 47 -19 78 -23 158 -24 93 0 105 2 166 32 249
122 304 449 108 645 -101 101 -263 142 -391 99z m181 -229 c156 -79 118 -306
-53 -320 -153 -13 -243 161 -143 275 55 62 129 80 196 45z"/>
</g>
</svg>
